<?xml version="1.0" encoding="iso-8859-1"?>
<!-- Generator: Adobe Illustrator 19.0.0, SVG Export Plug-In . SVG Version: 6.00 Build 0)  -->
<svg version="1.1" id="Layer_1" xmlns="http://www.w3.org/2000/svg" xmlns:xlink="http://www.w3.org/1999/xlink" x="0px" y="0px"
	 viewBox="0 0 460 460" style="enable-background:new 0 0 460 460;" xml:space="preserve">
<g>
	<path style="fill:#FEE187;" d="M230,0C102.974,0,0,102.975,0,230c0,114.582,83.788,209.594,193.436,227.109l266.556-225.143
		c0.006-0.655,0.008-1.31,0.008-1.966C460,102.975,357.025,0,230,0z"/>
	<path style="fill:#FFC61B;" d="M459.975,231.966L368.26,140.25L56.088,319.75l137.345,137.345C205.343,458.998,217.554,460,230,460
		C356.368,460,458.917,358.084,459.975,231.966z"/>
	<polygon style="fill:#71E2F0;" points="188.762,214.391 212.175,409.5 368.262,319.75 368.262,140.25 	"/>
	<polygon style="fill:#FFFFFF;" points="350.308,273.466 350.308,309.366 292.949,342.349 292.949,306.449 321.921,279.02 	"/>
	<polygon style="fill:#C2FBFF;" points="350.308,255.516 350.308,273.466 292.949,306.449 292.949,288.499 	"/>
	<polygon style="fill:#C2FBFF;" points="212.175,206.587 212.175,409.5 56.088,319.75 56.088,140.25 	"/>
	<polygon style="fill:#71E2F0;" points="56.086,140.25 110.649,171.623 214.025,141.249 266.732,81.868 212.173,50.5 	"/>
	<polygon style="fill:#38C6D9;" points="157.618,198.63 212.173,230 368.259,140.25 313.707,108.875 209.565,139.687 	"/>
	<polygon style="fill:#FFFFFF;" points="157.618,276.672 110.649,249.666 110.649,171.623 155.923,175.159 157.618,198.63 	"/>
	<polygon style="fill:#C2FBFF;" points="110.649,171.623 266.732,81.868 313.707,108.875 157.618,198.63 	"/>
	<path style="fill:#FF0F27;" d="M258.413,271.923c0,18.909,6.794,36.228,18.068,49.66l59.225,70.574L360,293.393l-24.294-98.764
		C293.019,194.629,258.413,229.235,258.413,271.923z"/>
	<path style="fill:#C2001B;" d="M335.707,194.629v197.528l59.225-70.574C406.207,308.151,413,290.831,413,271.923
		C413,229.235,378.395,194.629,335.707,194.629z"/>
	<path style="fill:#C2FBFF;" d="M335.709,234.63c20.597,0,37.291,16.694,37.291,37.291s-16.694,37.299-37.291,37.299l-15.771-37.299
		L335.709,234.63z"/>
	<path style="fill:#FFFFFF;" d="M335.709,234.63v74.59c-20.597,0-37.299-16.702-37.299-37.299S315.112,234.63,335.709,234.63z"/>
</g>
<g>
</g>
<g>
</g>
<g>
</g>
<g>
</g>
<g>
</g>
<g>
</g>
<g>
</g>
<g>
</g>
<g>
</g>
<g>
</g>
<g>
</g>
<g>
</g>
<g>
</g>
<g>
</g>
<g>
</g>
</svg>
